<?xml version="1.0" encoding="utf-8"?>
<!-- Generator: Adobe Illustrator 23.0.0, SVG Export Plug-In . SVG Version: 6.00 Build 0)  -->
<svg version="1.1" id="图层_1" xmlns="http://www.w3.org/2000/svg" xmlns:xlink="http://www.w3.org/1999/xlink" x="0px" y="0px"
	 viewBox="0 0 50 50" style="enable-background:new 0 0 50 50;" xml:space="preserve">
<path d="M41.84,43.33l-9.55-13.15c3.93-2.49,6.32-6.79,6.32-11.49c0-7.51-6.11-13.61-13.61-13.61s-13.61,6.11-13.61,13.61
	c0,4.7,2.4,9,6.32,11.49L8.16,43.33c-0.22,0.3-0.25,0.71-0.08,1.04c0.17,0.33,0.52,0.55,0.89,0.55h32.05c0.38,0,0.72-0.21,0.89-0.55
	C42.09,44.04,42.06,43.64,41.84,43.33z M25,26.97c-2.94,0-5.69-1.58-7.16-4.13l-0.75-1.3l2.6-1.5l0.75,1.3
	c0.94,1.63,2.69,2.64,4.57,2.64c1.88,0,3.63-1.01,4.57-2.64l0.75-1.3l2.6,1.5l-0.75,1.3C30.69,25.38,27.94,26.97,25,26.97z"/>
</svg>
