<?xml version="1.0" encoding="utf-8"?>
<!-- Generator: Adobe Illustrator 23.0.0, SVG Export Plug-In . SVG Version: 6.00 Build 0)  -->
<svg version="1.1" id="图层_1" xmlns="http://www.w3.org/2000/svg" xmlns:xlink="http://www.w3.org/1999/xlink" x="0px" y="0px"
	 viewBox="0 0 50 50" style="enable-background:new 0 0 50 50;" xml:space="preserve">
<g>
	<path d="M25,26.97c-2.94,0-5.69-1.58-7.16-4.13l-0.75-1.3l2.6-1.5l0.75,1.3c0.94,1.63,2.69,2.64,4.57,2.64
		c1.88,0,3.63-1.01,4.57-2.64l0.75-1.3l2.6,1.5l-0.75,1.3C30.69,25.38,27.94,26.97,25,26.97z"/>
</g>
<g>
	<g>
		<path d="M41.03,44.92H8.97c-0.38,0-0.72-0.21-0.89-0.55c-0.17-0.33-0.14-0.74,0.08-1.04l9.55-13.15
			c-3.93-2.49-6.32-6.79-6.32-11.49c0-7.51,6.11-13.61,13.61-13.61s13.61,6.11,13.61,13.61c0,4.7-2.4,9-6.32,11.49l9.55,13.15
			c0.22,0.3,0.25,0.71,0.08,1.04C41.75,44.71,41.4,44.92,41.03,44.92z M10.94,42.92h28.13l-9.05-12.46
			c-0.17-0.24-0.23-0.53-0.16-0.82s0.25-0.52,0.51-0.66c3.85-2.01,6.25-5.96,6.25-10.29c0-6.4-5.21-11.61-11.61-11.61
			s-11.61,5.21-11.61,11.61c0,4.34,2.39,8.28,6.25,10.29c0.26,0.13,0.44,0.38,0.51,0.66s0.01,0.58-0.16,0.82L10.94,42.92z"/>
	</g>
</g>
</svg>
