<?xml version="1.0"?>
<svg viewBox="0 0 50 50" version="1.1" xmlns="http://www.w3.org/2000/svg" xmlns:xlink="http://www.w3.org/1999/xlink">
<g>
  <g>
    <path d="M25.04,46c-1,0-1.94-0.4-2.61-1.1c-2.58-2.75-5.04-5.67-7.29-8.68C10.4,29.86,8,24.73,8,20.97
      c0-4.53,1.77-8.79,4.98-12C16.2,5.77,20.47,4,25,4c9.37,0,17,7.61,17,16.97c0,2.31-0.87,5.09-2.57,8.27
      c-1.6,2.98-4,6.43-7.12,10.24l-4.64,5.31C27.01,45.55,26.05,45.99,25.04,46z M25,6c-4,0-7.77,1.56-10.6,4.39
      c-2.84,2.83-4.4,6.59-4.4,10.58c0,3.32,2.27,8.05,6.74,14.05c2.21,2.95,4.61,5.81,7.14,8.5C24.17,43.82,24.58,44,25,44
      c0.46,0,0.87-0.19,1.16-0.53l4.6-5.25c3.04-3.72,5.37-7.06,6.91-9.93c1.55-2.88,2.33-5.34,2.33-7.32C40,12.72,33.27,6,25,6z"/>
  </g>
</g>
<g>
  <g>
    <path d="M25,28c-3.86,0-7-3.14-7-7s3.14-7,7-7c3.86,0,7,3.14,7,7S28.86,28,25,28z M25,16c-2.76,0-5,2.24-5,5
      s2.24,5,5,5s5-2.24,5-5S27.76,16,25,16z"/>
  </g>
</g>
</svg>
