<?xml version="1.0" standalone="no"?>
<!DOCTYPE svg PUBLIC "-//W3C//DTD SVG 1.1//EN" "http://www.w3.org/Graphics/SVG/1.1/DTD/svg11.dtd">
<svg viewBox="0 0 1024 1024" version="1.1" xmlns="http://www.w3.org/2000/svg" xmlns:xlink="http://www.w3.org/1999/xlink">
  <path d="M913.892 470.344c-47.036-130.446-161.892-230.565-304.665-262.434 36.588-52.48 97.191-86.976 165.988-86.976 111.86 0 202.508 90.683 202.508 202.49 0.036 58.032-24.706 109.998-63.83 146.923v0zM524.486 128.505v127.324c194.311 7.93 349.502 167.497 349.502 363.725 0 81.957-27.365 157.264-72.981 218.166l84.458 146.284-70.18 40.49-72.239-125.196c-63.247 52.852-144.637 84.723-233.508 84.723-88.377 0-169.375-31.443-232.481-83.802l-74.153 128.407-70.127-40.49 86.142-149.263c-46.167-61.065-73.886-136.903-73.886-219.34 0-194.933 153.149-353.615 345.545-363.527v-127.539c-19.65-7.024-33.892-25.361-33.892-47.426 0-28.111 22.79-50.866 50.866-50.866 28.111 0 50.866 22.772 50.866 50.866 0 22.099-14.275 40.417-33.929 47.46v0zM226.013 619.555c0 156.571 126.918 283.488 283.488 283.488s283.488-126.881 283.488-283.488c0-156.553-126.918-283.472-283.488-283.472s-283.488 126.918-283.488 283.472v0zM594.49 680.833h-101.786c-18.711 0-33.892-15.2-33.892-33.91v-135.661c0-18.747 15.182-33.929 33.892-33.929 18.783 0 33.929 15.182 33.929 33.929v101.748h67.855c18.73 0 33.892 15.163 33.892 33.946 0 18.676-15.163 33.874-33.892 33.874v0zM110.179 470.344c-39.124-36.926-63.884-88.908-63.884-146.941 0-111.824 90.665-202.49 202.508-202.49 68.815 0 129.399 34.513 165.988 86.994-142.755 31.871-257.575 131.988-304.611 262.434v0z"></path>
</svg>