<?xml version="1.0"?>
<svg viewBox="0 0 50 50" version="1.1" xmlns="http://www.w3.org/2000/svg" xmlns:xlink="http://www.w3.org/1999/xlink">
<g>
  <g>
    <path d="M22.16,43H11.27c-2.21,0-4-1.79-4-4V11c0-2.21,1.79-4,4-4h24c2.21,0,4,1.79,4,4v12.46c0,0.55-0.45,1-1,1s-1-0.45-1-1V11c0-1.1-0.9-2-2-2h-24c-1.1,0-2,0.9-2,2v28c0,1.1,0.9,2,2,2h10.89c0.55,0,1,0.45,1,1S22.71,43,22.16,43z" />
  </g>
</g>
<g>
  <g>
    <path d="M36.16,28.7l3.44,3.44l-8.81,8.81l-3.7,0.03L27.06,38c0-0.08,0-0.15,0-0.2c0,0,0.01-0.01,0.01-0.01l0.2-0.2L36.16,28.7 M36.17,26.57c-0.43,0-0.87,0.17-1.2,0.5l-9.1,9.1c-0.56,0.56-0.8,0.65-0.8,1.82l0.04,3.95C25.06,42.63,25.31,43,25.96,43c0.03,0,0.07,0,0.1,0l4.93-0.04c0.43-0.02,0.84-0.21,1.15-0.51l9.1-9.1c0.66-0.66,0.67-1.73,0.02-2.38l-3.91-3.91C37.02,26.73,36.59,26.57,36.17,26.57L36.17,26.57z" />
  </g>
</g>
<g>
  <g>
    <path d="M30.27,24.89h-14c-0.55,0-1-0.45-1-1s0.45-1,1-1h14c0.55,0,1,0.45,1,1S30.82,24.89,30.27,24.89z" />
  </g>
  <g>
    <path d="M30.27,16.79h-14c-0.55,0-1-0.45-1-1s0.45-1,1-1h14c0.55,0,1,0.45,1,1S30.82,16.79,30.27,16.79z" />
  </g>
  <g>
    <path d="M25.98,33h-9.72c-0.55,0-1-0.45-1-1s0.45-1,1-1h9.72c0.55,0,1,0.45,1,1S26.54,33,25.98,33z" />
  </g>
</g>
</svg>
