<?xml version="1.0" encoding="utf-8"?>
<!-- Generator: Adobe Illustrator 23.0.0, SVG Export Plug-In . SVG Version: 6.00 Build 0)  -->
<svg version="1.1" id="图层_1" xmlns="http://www.w3.org/2000/svg" xmlns:xlink="http://www.w3.org/1999/xlink" x="0px" y="0px"
	 viewBox="0 0 50 50" style="enable-background:new 0 0 50 50;" xml:space="preserve">
<path d="M24.29,7.5c9.65,0,17.5,7.85,17.5,17.5s-7.85,17.5-17.5,17.5S6.79,34.65,6.79,25S14.65,7.5,24.29,7.5 M24.29,5.5
	c-10.77,0-19.5,8.73-19.5,19.5s8.73,19.5,19.5,19.5s19.5-8.73,19.5-19.5S35.06,5.5,24.29,5.5L24.29,5.5z"/>
<path d="M24.29,11l-3.05,15.27C20.85,28.2,22.33,30,24.29,30h0c1.97,0,3.44-1.8,3.05-3.73L24.29,11z"/>
</svg>
