<?xml version="1.0" encoding="utf-8"?>
<!-- Generator: Adobe Illustrator 23.0.0, SVG Export Plug-In . SVG Version: 6.00 Build 0)  -->
<svg version="1.1" id="图层_1" xmlns="http://www.w3.org/2000/svg" xmlns:xlink="http://www.w3.org/1999/xlink" x="0px" y="0px"
	 viewBox="0 0 50 50" style="enable-background:new 0 0 50 50;" xml:space="preserve">
<path d="M42.5,45.63l-16.95-8.64L8.61,45.63V7H42.5V45.63z M25.51,19.52l-1.81,3.66c-0.03,0.05-0.08,0.09-0.14,0.1l-4.04,0.59
	c-0.15,0.02-0.21,0.21-0.1,0.31l2.92,2.85c0.04,0.04,0.06,0.1,0.05,0.16l-0.69,4.02c-0.03,0.15,0.13,0.26,0.26,0.19l3.61-1.9
	c0.05-0.03,0.12-0.03,0.17,0l3.61,1.9c0.13,0.07,0.29-0.04,0.26-0.19l-0.69-4.02c-0.01-0.06,0.01-0.12,0.05-0.16l2.92-2.85
	c0.11-0.11,0.05-0.29-0.1-0.31l-4.04-0.59c-0.06-0.01-0.11-0.05-0.14-0.1l-1.81-3.66C25.77,19.38,25.58,19.38,25.51,19.52z M40.5,9
	h-30v5h30V9z"/>
</svg>
