<?xml version="1.0" encoding="utf-8"?>
<!-- Generator: Adobe Illustrator 23.0.0, SVG Export Plug-In . SVG Version: 6.00 Build 0)  -->
<svg version="1.1" id="图层_1" xmlns="http://www.w3.org/2000/svg" xmlns:xlink="http://www.w3.org/1999/xlink" x="0px" y="0px"
	 viewBox="0 0 50 50" style="enable-background:new 0 0 50 50;" xml:space="preserve">
<g>
	<path d="M41,46c-0.16,0-0.31-0.04-0.45-0.11l-15.49-7.9l-15.49,7.9c-0.31,0.16-0.68,0.14-0.98-0.04c-0.3-0.18-0.48-0.5-0.48-0.85V9
		c0-0.55,0.45-1,1-1H41c0.55,0,1,0.45,1,1v36c0,0.35-0.18,0.67-0.48,0.85C41.36,45.95,41.18,46,41,46z M25.05,35.87
		c0.16,0,0.31,0.04,0.45,0.11L40,43.37V10H10.11v33.37l14.49-7.39C24.74,35.91,24.9,35.87,25.05,35.87z"/>
</g>
<g>
	<path d="M25.56,20.97l1.53,3.09c0.06,0.13,0.18,0.21,0.32,0.23l3.41,0.5c0.35,0.05,0.49,0.48,0.24,0.73l-2.47,2.41
		c-0.1,0.1-0.15,0.24-0.12,0.38l0.58,3.4c0.06,0.35-0.31,0.62-0.62,0.45l-3.05-1.6c-0.13-0.07-0.27-0.07-0.4,0l-3.05,1.6
		c-0.32,0.17-0.68-0.1-0.62-0.45l0.58-3.4c0.02-0.14-0.02-0.28-0.12-0.38l-2.47-2.41c-0.25-0.25-0.11-0.68,0.24-0.73l3.41-0.5
		c0.14-0.02,0.26-0.11,0.32-0.23l1.53-3.09C24.95,20.65,25.4,20.65,25.56,20.97z"/>
</g>
<g>
	<rect x="9.11" y="15.4" width="31.89" height="2"/>
</g>
</svg>
