<?xml version="1.0"?>
<svg viewBox="0 0 48 48" version="1.1" xmlns="http://www.w3.org/2000/svg" xmlns:xlink="http://www.w3.org/1999/xlink">
<style type="text/css">
  .st1 { fill:currentColor; }
</style>
<g>
  <g>
    <g>
      <path d="M44.01,30.85h-20.3c-3.79,0-6.87-3.08-6.87-6.87s3.08-6.87,6.87-6.87h20.3c0.59,0,1.07,0.48,1.07,1.07
        c0,0.59-0.48,1.07-1.07,1.07h-20.3c-2.61,0-4.73,2.12-4.73,4.73c0,2.61,2.12,4.73,4.73,4.73h20.3c0.59,0,1.07,0.48,1.07,1.07
        S44.6,30.85,44.01,30.85z"/>
    </g>
    <g>
      <path class="st1" d="M21.42,23.94c0,1.48,1.2,2.68,2.68,2.68c1.48,0,2.68-1.2,2.68-2.68c0-1.48-1.2-2.68-2.68-2.68
        C22.62,21.26,21.42,22.46,21.42,23.94L21.42,23.94z"/>
    </g>
    <g>
      <path d="M39.94,45.03H9.06c-3.1,0-5.62-2.52-5.62-5.62V8.53c0-3.1,2.52-5.62,5.62-5.62h30.89c3.1,0,5.62,2.52,5.62,5.62v30.89
        C45.56,42.51,43.04,45.03,39.94,45.03z M9.06,5.05c-1.91,0-3.47,1.56-3.47,3.47v30.89c0,1.91,1.56,3.47,3.47,3.47h30.89
        c1.91,0,3.47-1.56,3.47-3.47V8.53c0-1.91-1.56-3.47-3.47-3.47H9.06z"/>
    </g>
  </g>
</g>
</svg>
