<?xml version="1.0"?>
<svg viewBox="0 0 48 48" version="1.1" xmlns="http://www.w3.org/2000/svg" xmlns:xlink="http://www.w3.org/1999/xlink">
<g>
  <g>
    <g>
      <path d="M19.89,20.95c-0.18,0-0.36-0.04-0.52-0.13c-0.34-0.19-0.56-0.55-0.56-0.94V4.49c0-0.59,0.48-1.07,1.07-1.07s1.07,0.48,1.07,1.07v13.44l2.08-1.32c0.4-0.36,0.93-0.56,1.47-0.56c0.54,0,1.07,0.2,1.47,0.56l2.06,1.31l0-13.43c0-0.59,0.48-1.07,1.07-1.07h0c0.59,0,1.07,0.48,1.07,1.07l0,15.38c0,0.39-0.21,0.75-0.56,0.94c-0.34,0.19-0.76,0.18-1.09-0.03l-3.8-2.41c-0.07-0.04-0.13-0.1-0.19-0.16c-0.02-0.02-0.06-0.02-0.09,0c-0.06,0.06-0.12,0.11-0.19,0.15l-3.81,2.42C20.28,20.89,20.09,20.95,19.89,20.95z" />
    </g>
    <g>
      <path d="M39.94,45H9.06c-3.1,0-5.62-2.52-5.62-5.62V8.5c0-3.1,2.52-5.62,5.62-5.62h30.89c3.1,0,5.62,2.52,5.62,5.62v30.89C45.56,42.48,43.04,45,39.94,45z M9.06,5.02c-1.92,0-3.47,1.56-3.47,3.47v30.89c0,1.92,1.56,3.47,3.47,3.47h30.89c1.92,0,3.47-1.56,3.47-3.47V8.5c0-1.91-1.56-3.47-3.47-3.47H9.06z" />
    </g>
    <g>
      <path d="M19.88,15.17H5.89c-0.59,0-1.07-0.48-1.07-1.07c0-0.59,0.48-1.07,1.07-1.07h13.99c0.59,0,1.07,0.48,1.07,1.07C20.96,14.69,20.48,15.17,19.88,15.17z" />
    </g>
    <g>
      <path d="M44.49,15.17H30.49c-0.59,0-1.07-0.48-1.07-1.07c0-0.59,0.48-1.07,1.07-1.07h13.99c0.59,0,1.07,0.48,1.07,1.07C45.56,14.69,45.08,15.17,44.49,15.17z" />
    </g>
  </g>
</g>
</svg>
