<?xml version="1.0"?>
<svg viewBox="0 0 48 48" version="1.1" xmlns="http://www.w3.org/2000/svg" xmlns:xlink="http://www.w3.org/1999/xlink">
<g>
  <g>
    <g>
      <path d="M33.08,8.92H15.92c-0.43,0-0.83-0.17-1.14-0.47s-0.47-0.71-0.47-1.14l0-3.38c0-0.9,0.74-1.64,1.64-1.64h17.09c0.9,0,1.64,0.74,1.64,1.64v3.38C34.69,8.2,33.97,8.92,33.08,8.92z M16.46,6.78h16.08V4.44H16.46L16.46,6.78z M33.05,4.44L33.05,4.44L33.05,4.44z M16.46,3.93L16.46,3.93C16.46,3.93,16.46,3.93,16.46,3.93z"/>
    </g>
    <g>
      <path d="M39.44,45.65H9.56c-1.99,0-3.6-1.62-3.6-3.6V8.52c0-1.99,1.62-3.6,3.6-3.6h5.48c0.59,0,1.07,0.48,1.07,1.07s-0.48,1.07-1.07,1.07H9.56c-0.8,0-1.46,0.65-1.46,1.46v33.53c0,0.8,0.65,1.46,1.46,1.46h29.87c0.8,0,1.46-0.65,1.46-1.46V8.52c0-0.8-0.65-1.46-1.46-1.46h-5.55c-0.59,0-1.07-0.48-1.07-1.07s0.48-1.07,1.07-1.07h5.55c1.99,0,3.6,1.62,3.6,3.6v33.53C43.04,44.04,41.42,45.65,39.44,45.65z"/>
    </g>
    <g>
      <g>
        <path d="M32.18,20.9H16.82c-0.59,0-1.07-0.48-1.07-1.07s0.48-1.07,1.07-1.07h15.37c0.59,0,1.07,0.48,1.07,1.07S32.78,20.9,32.18,20.9z"/>
      </g>
      <g>
        <path d="M32.18,31.82H16.82c-0.59,0-1.07-0.48-1.07-1.07c0-0.59,0.48-1.07,1.07-1.07h15.37c0.59,0,1.07,0.48,1.07,1.07C33.26,31.34,32.78,31.82,32.18,31.82z"/>
      </g>
    </g>
  </g>
</g>
</svg>
