<?xml version="1.0"?>
<svg viewBox="0 0 48 48" version="1.1" xmlns="http://www.w3.org/2000/svg" xmlns:xlink="http://www.w3.org/1999/xlink">
<g>
  <g>
    <g>
      <path d="M33.08,9.02H15.92c-0.43,0-0.83-0.17-1.14-0.47c-0.3-0.3-0.47-0.71-0.47-1.14l0-3.38c0-0.9,0.74-1.64,1.64-1.64h17.09c0.9,0,1.64,0.74,1.64,1.64v3.38C34.69,8.3,33.97,9.02,33.08,9.02z M16.46,6.87h16.08V4.53H16.46L16.46,6.87z M33.05,4.53L33.05,4.53L33.05,4.53z M16.46,4.03L16.46,4.03C16.46,4.03,16.46,4.03,16.46,4.03z" />
    </g>
    <g>
      <path d="M39.44,45.55H9.56c-1.99,0-3.6-1.62-3.6-3.6V8.42c0-1.99,1.62-3.6,3.6-3.6h5.48c0.59,0,1.07,0.48,1.07,1.07s-0.48,1.07-1.07,1.07H9.56c-0.8,0-1.46,0.65-1.46,1.46v33.53c0,0.8,0.65,1.46,1.46,1.46h29.87c0.8,0,1.46-0.65,1.46-1.46V8.42c0-0.8-0.65-1.46-1.46-1.46h-5.55c-0.59,0-1.07-0.48-1.07-1.07s0.48-1.07,1.07-1.07h5.55c1.99,0,3.6,1.62,3.6,3.6v33.53C43.04,43.94,41.42,45.55,39.44,45.55z" />
    </g>
    <g>
      <path d="M22.66,31.4c-0.27,0-0.55-0.1-0.76-0.31l-5.27-5.27c-0.42-0.42-0.42-1.1,0-1.52c0.42-0.42,1.1-0.42,1.52,0l4.51,4.51l9.61-9.61c0.42-0.42,1.1-0.42,1.52,0c0.42,0.42,0.42,1.1,0,1.52L23.42,31.09C23.21,31.3,22.93,31.4,22.66,31.4z" />
    </g>
  </g>
</g>
</svg>
