<?xml version="1.0"?>
<svg viewBox="0 0 1024 1024" version="1.1" xmlns="http://www.w3.org/2000/svg" xmlns:xlink="http://www.w3.org/1999/xlink">
  <path d="M798 375.3c82.6 0 149.8-67.2 149.8-149.8S880.6 75.7 798 75.7c-82.6 0-149.8 67.2-149.8 149.8 0 18.8 3.5 36.8 9.9 53.4L347.7 431.8c-27.2-37.8-71.6-62.5-121.7-62.5-82.6 0-149.8 67.2-149.8 149.8 0 82.6 67.2 149.8 149.8 149.8 46.3 0 87.7-21.1 115.2-54.2l176 129c-6.7 17-10.4 35.5-10.4 54.8 0 82.6 67.2 149.8 149.8 149.8 82.6 0 149.8-67.2 149.8-149.8 0-82.6-67.2-149.8-149.8-149.8-40.2 0-76.8 15.9-103.7 41.8l-182-133.4c3.2-12.2 4.9-24.9 4.9-38 0-9.7-0.9-19.2-2.7-28.4l320.4-157.9c27 26.3 63.9 42.5 104.5 42.5zM656.6 712.7c47.3 0 85.8 38.5 85.8 85.8s-38.5 85.8-85.8 85.8-85.8-38.5-85.8-85.8 38.5-85.8 85.8-85.8zM226 604.9c-47.3 0-85.8-38.5-85.8-85.8s38.5-85.8 85.8-85.8 85.8 38.5 85.8 85.8-38.5 85.8-85.8 85.8z m572-465.2c47.3 0 85.8 38.5 85.8 85.8s-38.5 85.8-85.8 85.8-85.8-38.5-85.8-85.8 38.5-85.8 85.8-85.8z"></path>
</svg>